<?xml version="1.0" encoding="utf-8"?>
<!-- Generator: Adobe Illustrator 17.1.0, SVG Export Plug-In . SVG Version: 6.00 Build 0)  -->
<!DOCTYPE svg PUBLIC "-//W3C//DTD SVG 1.1//EN" "http://www.w3.org/Graphics/SVG/1.1/DTD/svg11.dtd">
<svg version="1.1" id="Layer_1" xmlns="http://www.w3.org/2000/svg" xmlns:xlink="http://www.w3.org/1999/xlink" x="0px" y="0px"
	 viewBox="0 0 612 792" enable-background="new 0 0 612 792" xml:space="preserve">
<path fill="#AAAAAA" d="M400.4,702c0-5.1,2.5-12.8,2.5-17.9c0-40.8-5.1-81.6-12.8-122.4c-10.2-40.8-22.9-71.4-38.2-91.8
	c61.2-5.1,109.7-22.9,140.2-53.5c33.1-30.6,48.4-71.4,48.4-119.9c0-43.3-15.3-76.5-45.9-99.5v-66.3c0-5.1-2.5-10.2-7.6-15.3
	s-10.2-7.7-15.3-7.7s-33.1,17.8-84.1,51c-23-2.6-48.5-5.1-74-5.1c-25.5,0-53.6,2.6-73.9,5.1c-51-33.2-79.1-51-84.2-51
	c-5.1,0-10.2,2.6-15.3,7.7c-10.2,7.7-12.7,12.8-12.7,15.3c0,5.1,0,15.3,0,33.1c0,15.3-2.5,28.1-2.5,35.7
	c-28.1,22.9-40.8,56.1-40.8,96.9c0,48.4,15.3,89.2,48.4,119.8s79,48.5,140.3,53.5c-2.6,2.6-5.1,7.7-10.2,15.3l-25.5,68.9
	c-10.2,40.8-15.3,84.1-15.3,130c0,5.1,0,12.8,2.6,17.9L400.4,702z"/>
<path d="M284.3,250.8c-24.5,5.3-53.2,4-74.7,18.5c-5.3,3.6-0.3,12.2,5,8.6c10-6.8,22.2-9.3,34-11.3c12.7-2.2,25.7-3.4,38.3-6.2
	C293.2,259,290.5,249.4,284.3,250.8z"/>
<path d="M459.1,258.8c-25.4-18.1-60.4-11.2-89.5-11.2c-6.4,0-6.4,10,0,10c27.2,0,60.7-7.1,84.5,9.8
	C459.3,271.2,464.3,262.5,459.1,258.8z"/>
<path d="M328.6,33.1c-9.6,7.5-21.4,15.1-23.8,28c-1.1,6,0.3,12.2,3.6,17.3c2.3,3.6,5.9,6.2,3.7,10.8c-3.5,7.4-12.9,11.3-18.4,17
	c-7.1,7.4-6.3,16.7-0.3,24.5c3.9,5,12.6,0.1,8.6-5c-2.1-2.7-4.3-5.7-3.3-9.2c0.9-3,4.4-5.5,6.7-7.3c6.4-5.2,13.3-9.5,16.5-17.6
	c1.7-4.2,1.1-8.8-0.9-12.7c-2.3-4.4-6-7-6.5-12.4c-1.2-11.8,13.4-20,21.3-26.2C340.7,36.2,333.6,29.1,328.6,33.1z"/>
<path d="M402.4,45.1c2.9-5.7-5.7-10.8-8.6-5c-5,9.8-12,16.7-9.7,28.5c0.8,4.1,3,8,4.9,11.7c1.8,3.4,3.5,6.3,1.5,9.9
	c-4.1,7.5-13.2,12-18.3,18.9c-7,9.4-6.3,23-6.1,34c0.1,6.4,10.1,6.5,10,0c-0.2-10.2-1.2-22.4,6.2-30.7c5.6-6.3,13.3-10.6,17.4-18.2
	c4.1-7.5,0.3-14.5-3.2-21.2c-2-3.9-3.7-8-2.8-12.4C394.9,55,399.8,50.2,402.4,45.1z"/>
<path d="M244.9,126.3c-8.5-2.1-9-12.2-9.1-19.4c-0.1-11.3,1.9-22.5,3.2-33.6c1.1-8.9,2.9-19.4-1.8-27.5c-2.5-4.3-7.1-6.8-11.5-8.6
	c-4-1.7-8.6-2.9-8.7-8c-0.1-6.4-10.1-6.5-10,0c0.1,5.8,2.5,10.2,7.2,13.5c4.1,2.9,9.6,3.5,13.4,6.9c3.2,2.9,2.7,8.2,2.5,12.1
	c-0.2,5.6-1,11.3-1.8,16.9c-2.2,16.9-9.5,51.6,13.8,57.4C248.5,137.5,251.2,127.8,244.9,126.3z"/>
</svg>
