<?xml version="1.0" encoding="utf-8"?>
<!-- Generator: Adobe Illustrator 17.1.0, SVG Export Plug-In . SVG Version: 6.00 Build 0)  -->
<!DOCTYPE svg PUBLIC "-//W3C//DTD SVG 1.1//EN" "http://www.w3.org/Graphics/SVG/1.1/DTD/svg11.dtd">
<svg version="1.1" id="Layer_1" xmlns="http://www.w3.org/2000/svg" xmlns:xlink="http://www.w3.org/1999/xlink" x="0px" y="0px"
	 viewBox="0 0 612 792" enable-background="new 0 0 612 792" xml:space="preserve">
<path fill="#AAAAAA" d="M400.4,702c0-5.1,2.5-12.8,2.5-17.9c0-40.8-5.1-81.6-12.8-122.4c-10.2-40.8-22.9-71.4-38.2-91.8
	c61.2-5.1,109.7-22.9,140.2-53.5c33.1-30.6,48.4-71.4,48.4-119.9c0-43.3-15.3-76.5-45.9-99.5v-66.3c0-5.1-2.5-10.2-7.6-15.3
	s-10.2-7.7-15.3-7.7s-33.1,17.8-84.1,51c-23-2.6-48.5-5.1-74-5.1c-25.5,0-53.6,2.6-73.9,5.1c-51-33.2-79.1-51-84.2-51
	c-5.1,0-10.2,2.6-15.3,7.7c-10.2,7.7-12.7,12.8-12.7,15.3c0,5.1,0,15.3,0,33.1c0,15.3-2.5,28.1-2.5,35.7
	c-28.1,22.9-40.8,56.1-40.8,96.9c0,48.4,15.3,89.2,48.4,119.8s79,48.5,140.3,53.5c-2.6,2.6-5.1,7.7-10.2,15.3l-25.5,68.9
	c-10.2,40.8-15.3,84.1-15.3,130c0,5.1,0,12.8,2.6,17.9L400.4,702z"/>
<path d="M335,262.7c6.1,11.4,13.7,21.9,24.4,29.3c11.2,7.8,25.2,9,38.2,5.8c21.6-5.3,49.7-26.1,45.6-51c-1.1-6.4-10.7-3.6-9.6,2.7
	c1.6,9.8-5.8,18.4-12.6,24.5c-7.3,6.5-16.6,11.6-26,14.2c-24.1,6.6-40.9-11.1-51.3-30.6C340.6,251.9,332,257,335,262.7z"/>
<path d="M243.6,302.5c11-0.4,22.1-2.1,31-9c9.5-7.4,10.8-20.8,9.8-31.9c-0.6-6.4-10.6-6.4-10,0c0.8,9,0.5,18.5-6.9,24.8
	c-6.2,5.2-16.2,5.7-23.9,6.1c-17.1,0.8-43.7-2.4-43.2-24.9c0.1-6.5-9.9-6.4-10,0C189.8,296.4,220.6,303.3,243.6,302.5z"/>
<path d="M431.1,379.6c-57.3,0-114.9,1.2-170.8,15.2c-6.3,1.6-3.6,11.2,2.7,9.6c55.1-13.8,111.7-14.8,168.2-14.8
	C437.5,389.6,437.5,379.6,431.1,379.6z"/>
</svg>
