<?xml version="1.0" encoding="utf-8"?>
<!-- Generator: Adobe Illustrator 17.1.0, SVG Export Plug-In . SVG Version: 6.00 Build 0)  -->
<!DOCTYPE svg PUBLIC "-//W3C//DTD SVG 1.1//EN" "http://www.w3.org/Graphics/SVG/1.1/DTD/svg11.dtd">
<svg version="1.1" id="Layer_1" xmlns="http://www.w3.org/2000/svg" xmlns:xlink="http://www.w3.org/1999/xlink" x="0px" y="0px"
	 viewBox="0 0 612 792" enable-background="new 0 0 612 792" xml:space="preserve">
<path fill="#AAAAAA" d="M400.4,702c0-5.1,2.5-12.8,2.5-17.9c0-40.8-5.1-81.6-12.8-122.4c-10.2-40.8-22.9-71.4-38.2-91.8
	c61.2-5.1,109.7-22.9,140.2-53.5c33.1-30.6,48.4-71.4,48.4-119.9c0-43.3-15.3-76.5-45.9-99.5v-66.3c0-5.1-2.5-10.2-7.6-15.3
	s-10.2-7.7-15.3-7.7s-33.1,17.8-84.1,51c-23-2.6-48.5-5.1-74-5.1c-25.5,0-53.6,2.6-73.9,5.1c-51-33.2-79.1-51-84.2-51
	c-5.1,0-10.2,2.6-15.3,7.7c-10.2,7.7-12.7,12.8-12.7,15.3c0,5.1,0,15.3,0,33.1c0,15.3-2.5,28.1-2.5,35.7
	c-28.1,22.9-40.8,56.1-40.8,96.9c0,48.4,15.3,89.2,48.4,119.8s79,48.5,140.3,53.5c-2.6,2.6-5.1,7.7-10.2,15.3l-25.5,68.9
	c-10.2,40.8-15.3,84.1-15.3,130c0,5.1,0,12.8,2.6,17.9L400.4,702z"/>
<path d="M298.9,283.1c-6.1-11.4-13.7-21.9-24.4-29.3c-11.2-7.8-25.2-9-38.2-5.8c-21.6,5.3-49.7,26.1-45.6,51
	c1.1,6.4,10.7,3.6,9.6-2.7c-1.6-9.8,5.8-18.4,12.6-24.5c7.3-6.5,16.6-11.6,26-14.2c24.1-6.6,40.9,11.1,51.3,30.6
	C293.3,293.8,301.9,288.8,298.9,283.1z"/>
<path d="M390.4,243.2c-11,0.4-22.1,2.1-31,9c-9.5,7.4-10.8,20.8-9.8,31.9c0.6,6.4,10.6,6.4,10,0c-0.8-9-0.5-18.5,6.9-24.8
	c6.2-5.2,16.2-5.7,23.9-6.1c17.1-0.8,43.7,2.4,43.2,24.9c-0.1,6.5,9.9,6.4,10,0C444.2,249.4,413.3,242.4,390.4,243.2z"/>
<path d="M434.1,336.1c-65.4,4.9-131,1.5-196.5,1.5c-6.4,0-6.4,10,0,10c0.7,0,1.5,0,2.2,0c-0.9,14.9,4.4,28.8,15.6,39.1
	c12.1,11,28.5,16.5,44.2,19.9c16.4,3.5,33.3,4.8,50,4.7c19-0.1,38.9-1.7,55.9-11.1c7.4-4.1,14.2-10.5,17.5-18.4
	c3.9-9.2,2.7-19.4,5.4-28.8c1-3.5-1.6-5.9-4.4-6.2c3.4-0.2,6.7-0.4,10.1-0.7C440.5,345.6,440.5,335.6,434.1,336.1z M418.8,350.3
	c-1.7,6-2.1,12.2-2.7,18.3c-0.8,7.2-3.4,13-8.7,18c-8.6,8.2-21.4,11.3-32.9,13.2c-15.3,2.4-31.5,1.9-46.9,0.8
	c-27.5-2.1-70.4-9.2-77.2-41.7c-0.8-3.6-0.8-7.4-0.5-11.2c57.5,0.3,115,2.7,172.4-0.7C420.6,347.3,419.3,348.3,418.8,350.3z"/>
</svg>
