<?xml version="1.0" encoding="utf-8"?>
<!-- Generator: Adobe Illustrator 17.1.0, SVG Export Plug-In . SVG Version: 6.00 Build 0)  -->
<!DOCTYPE svg PUBLIC "-//W3C//DTD SVG 1.1//EN" "http://www.w3.org/Graphics/SVG/1.1/DTD/svg11.dtd">
<svg version="1.1" id="Layer_1" xmlns="http://www.w3.org/2000/svg" xmlns:xlink="http://www.w3.org/1999/xlink" x="0px" y="0px"
	 viewBox="0 0 612 792" enable-background="new 0 0 612 792" xml:space="preserve">
<path fill="#AAAAAA" d="M400.4,702c0-5.1,2.5-12.8,2.5-17.9c0-40.8-5.1-81.6-12.8-122.4c-10.2-40.8-22.9-71.4-38.2-91.8
	c61.2-5.1,109.7-22.9,140.2-53.5c33.1-30.6,48.4-71.4,48.4-119.9c0-43.3-15.3-76.5-45.9-99.5v-66.3c0-5.1-2.5-10.2-7.6-15.3
	s-10.2-7.7-15.3-7.7s-33.1,17.8-84.1,51c-23-2.6-48.5-5.1-74-5.1c-25.5,0-53.6,2.6-73.9,5.1c-51-33.2-79.1-51-84.2-51
	c-5.1,0-10.2,2.6-15.3,7.7c-10.2,7.7-12.7,12.8-12.7,15.3c0,5.1,0,15.3,0,33.1c0,15.3-2.5,28.1-2.5,35.7
	c-28.1,22.9-40.8,56.1-40.8,96.9c0,48.4,15.3,89.2,48.4,119.8s79,48.5,140.3,53.5c-2.6,2.6-5.1,7.7-10.2,15.3l-25.5,68.9
	c-10.2,40.8-15.3,84.1-15.3,130c0,5.1,0,12.8,2.6,17.9L400.4,702z"/>
<path d="M284.3,250.8c-24.5,5.3-53.2,4-74.7,18.5c-5.3,3.6-0.3,12.2,5,8.6c10-6.8,22.2-9.3,34-11.3c12.7-2.2,25.7-3.4,38.3-6.2
	C293.2,259,290.5,249.4,284.3,250.8z"/>
<path d="M459.1,258.8c-25.4-18.1-60.4-11.2-89.5-11.2c-6.4,0-6.4,10,0,10c27.2,0,60.7-7.1,84.5,9.8
	C459.3,271.2,464.3,262.5,459.1,258.8z"/>
<path d="M336.8,376.6c-6.3-41.9-57-33.1-87.2-33c-0.3,0-0.6,0-0.9,0.1c-6.6,0.2-13.5,0.9-18.9,4.6c-7.2,4.9-8.1,13.8-7.3,21.9
	c2,20.6,16.3,35,34.2,43.9c16.9,8.5,38.8,13.1,57.1,6.4C332,413.8,339.6,394.8,336.8,376.6z M314.8,409c-16.1,9.8-39.9,3.3-55.3-4.7
	c-8.5-4.4-16.4-10.5-21.7-18.5c-4.7-7-7.3-17.6-4.9-25.8c1.6-5.7,9.7-6.4,16-6.4c0.2,0,0.4,0,0.7,0c0.5,0,1,0,1.5,0c1.1,0,2.1,0,3,0
	c0.3,0,0.6,0,0.9-0.1c12.3-0.3,24.6-1.4,36.9-0.7c10.5,0.6,22.3,2.7,29,11.5C331.2,377.6,329.8,399.8,314.8,409z"/>
</svg>
