<?xml version="1.0" encoding="utf-8"?>
<!-- Generator: Adobe Illustrator 17.1.0, SVG Export Plug-In . SVG Version: 6.00 Build 0)  -->
<!DOCTYPE svg PUBLIC "-//W3C//DTD SVG 1.1//EN" "http://www.w3.org/Graphics/SVG/1.1/DTD/svg11.dtd">
<svg version="1.1" id="Layer_1" xmlns="http://www.w3.org/2000/svg" xmlns:xlink="http://www.w3.org/1999/xlink" x="0px" y="0px"
	 viewBox="0 0 612 792" enable-background="new 0 0 612 792" xml:space="preserve">
<path fill="#AAAAAA" d="M400.4,702c0-5.1,2.5-12.8,2.5-17.9c0-40.8-5.1-81.6-12.8-122.4c-10.2-40.8-22.9-71.4-38.2-91.8
	c61.2-5.1,109.7-22.9,140.2-53.5c33.1-30.6,48.4-71.4,48.4-119.9c0-43.3-15.3-76.5-45.9-99.5v-66.3c0-5.1-2.5-10.2-7.6-15.3
	s-10.2-7.7-15.3-7.7s-33.1,17.8-84.1,51c-23-2.6-48.5-5.1-74-5.1c-25.5,0-53.6,2.6-73.9,5.1c-51-33.2-79.1-51-84.2-51
	c-5.1,0-10.2,2.6-15.3,7.7c-10.2,7.7-12.7,12.8-12.7,15.3c0,5.1,0,15.3,0,33.1c0,15.3-2.5,28.1-2.5,35.7
	c-28.1,22.9-40.8,56.1-40.8,96.9c0,48.4,15.3,89.2,48.4,119.8s79,48.5,140.3,53.5c-2.6,2.6-5.1,7.7-10.2,15.3l-25.5,68.9
	c-10.2,40.8-15.3,84.1-15.3,130c0,5.1,0,12.8,2.6,17.9L400.4,702z"/>
<path d="M302.6,265.6c-11.3-10.7-25.5-18.5-39.7-24.6c-13.9-5.9-29.5-11.1-44.8-9.9c-6.4,0.5-6.4,10.5,0,10
	c14-1.1,28.4,3.7,41.1,9.1c13,5.5,26.1,12.7,36.3,22.4C300.2,277.1,307.3,270,302.6,265.6z"/>
<path d="M416.6,224.3c-17.3,11.2-42.1,20.4-48.8,42c-1.9,6.2,7.7,8.8,9.6,2.7c2.9-9.3,11.4-15.6,19.1-20.8
	c8.1-5.5,16.9-9.9,25.1-15.2C427,229.4,422,220.8,416.6,224.3z"/>
<path d="M449.6,321.1c-8-6.2-14-15-23.3-19.5c-8.6-4.2-18.4-2.7-25.7,3.3c-12.8,10.5-16.8,28.8-27.1,41.4c-3.4,4.2-8.2,7.9-13.1,3.4
	c-4.9-4.4-6.2-11.6-11.5-15.9c-7.4-6.1-17.3-3.7-25.2,0.2c-9.2,4.5-16,13-21.9,21c-6.9,9.3-12.9,20.3-22.4,27.3
	c-8.2-13.6-12.9-32.7-28.5-38.8c-9.1-3.6-17.6,1.8-24,8c-6.7,6.5-13.2,16-13.9,25.6c-0.4,6.4,9.6,6.4,10,0
	c0.5-6.9,6.4-13.9,10.9-18.6c4.7-4.8,10.1-8.3,16.3-4.1c5.9,4,9.5,12,12.7,18c3.4,6.4,6.3,13.4,10.7,19.2c1.7,2.2,4.2,3.2,6.8,1.8
	c18.3-10.2,25.6-31.8,40.5-45.5c4.7-4.3,15.9-11.7,22-6.1c4.9,4.5,6.2,11.6,11.5,15.9c14.8,12,27.6-5.1,34.3-16.8
	c4.4-7.6,8.2-15.5,13.2-22.7c4.4-6.4,11-11.5,19.2-8c8.5,3.6,14.1,12.4,21.3,17.9C447.6,332,454.7,325,449.6,321.1z"/>
</svg>
