<?xml version="1.0" encoding="utf-8"?>
<!-- Generator: Adobe Illustrator 17.1.0, SVG Export Plug-In . SVG Version: 6.00 Build 0)  -->
<!DOCTYPE svg PUBLIC "-//W3C//DTD SVG 1.1//EN" "http://www.w3.org/Graphics/SVG/1.1/DTD/svg11.dtd">
<svg version="1.1" id="Layer_1" xmlns="http://www.w3.org/2000/svg" xmlns:xlink="http://www.w3.org/1999/xlink" x="0px" y="0px"
	 viewBox="0 0 612 792" enable-background="new 0 0 612 792" xml:space="preserve">
<path fill="#AAAAAA" d="M400.4,702c0-5.1,2.5-12.8,2.5-17.9c0-40.8-5.1-81.6-12.8-122.4c-10.2-40.8-22.9-71.4-38.2-91.8
	c61.2-5.1,109.7-22.9,140.2-53.5c33.1-30.6,48.4-71.4,48.4-119.9c0-43.3-15.3-76.5-45.9-99.5v-66.3c0-5.1-2.5-10.2-7.6-15.3
	s-10.2-7.7-15.3-7.7s-33.1,17.8-84.1,51c-23-2.6-48.5-5.1-74-5.1c-25.5,0-53.6,2.6-73.9,5.1c-51-33.2-79.1-51-84.2-51
	c-5.1,0-10.2,2.6-15.3,7.7c-10.2,7.7-12.7,12.8-12.7,15.3c0,5.1,0,15.3,0,33.1c0,15.3-2.5,28.1-2.5,35.7
	c-28.1,22.9-40.8,56.1-40.8,96.9c0,48.4,15.3,89.2,48.4,119.8s79,48.5,140.3,53.5c-2.6,2.6-5.1,7.7-10.2,15.3l-25.5,68.9
	c-10.2,40.8-15.3,84.1-15.3,130c0,5.1,0,12.8,2.6,17.9L400.4,702z"/>
<path d="M284.3,250.8c-24.5,5.3-53.2,4-74.7,18.5c-5.3,3.6-0.3,12.2,5,8.6c10-6.8,22.2-9.3,34-11.3c12.7-2.2,25.7-3.4,38.3-6.2
	C293.2,259,290.5,249.4,284.3,250.8z"/>
<path d="M459.1,258.8c-25.4-18.1-60.4-11.2-89.5-11.2c-6.4,0-6.4,10,0,10c27.2,0,60.7-7.1,84.5,9.8
	C459.3,271.2,464.3,262.5,459.1,258.8z"/>
<path d="M423.6,342.1c-50.5,0.1-101,3-151.5,3c-6.4,0-6.4,10,0,10c10.3,0,20.6-0.1,30.9-0.3c-0.7,22.4-4.1,57.3,24.8,60.5
	c7.3,0.8,15.3-0.1,21.5-4c5.8-3.7,9.2-9.9,11.4-16.2c4.6-13.2,3.5-28,3.3-41.8c19.8-0.6,39.6-1,59.5-1.1
	C430,352.1,430,342.1,423.6,342.1z M352.5,387.2c-1.1,5.4-3,10.6-7,14.5c-4.3,4.1-11.8,4.5-17.3,3.6c-10.5-1.6-14-11.2-15.1-20.6
	c-1.2-10-0.3-20.1,0-30.2c13.7-0.3,27.4-0.7,41.1-1.1C354.3,364.7,354.8,376.1,352.5,387.2z"/>
</svg>
