<?xml version="1.0" encoding="utf-8"?>
<!-- Generator: Adobe Illustrator 17.1.0, SVG Export Plug-In . SVG Version: 6.00 Build 0)  -->
<!DOCTYPE svg PUBLIC "-//W3C//DTD SVG 1.1//EN" "http://www.w3.org/Graphics/SVG/1.1/DTD/svg11.dtd">
<svg version="1.1" id="Layer_1" xmlns="http://www.w3.org/2000/svg" xmlns:xlink="http://www.w3.org/1999/xlink" x="0px" y="0px"
	 viewBox="0 0 24 24" enable-background="new 0 0 24 24" xml:space="preserve">
<path fill="#AAAAAA" d="M15.7,24c0-0.2,0.1-0.5,0.1-0.7c0-1.6-0.2-3.2-0.5-4.8c-0.4-1.6-0.9-2.8-1.5-3.6c2.4-0.2,4.3-0.9,5.5-2.1
	c1.3-1.2,1.9-2.8,1.9-4.7c0-1.7-0.6-3-1.8-3.9V1.6c0-0.2-0.1-0.4-0.3-0.6s-0.4-0.3-0.6-0.3c-0.2,0-1.3,0.7-3.3,2
	c-0.9-0.1-1.9-0.2-2.9-0.2s-2.1,0.1-2.9,0.2c-2-1.3-3.1-2-3.3-2c-0.2,0-0.4,0.1-0.6,0.3C5.1,1.3,5,1.5,5,1.6C5,1.8,5,2.2,5,2.9
	C5,3.5,4.9,4,4.9,4.3C3.8,5.2,3.3,6.5,3.3,8.1c0,1.9,0.6,3.5,1.9,4.7s3.1,1.9,5.5,2.1c-0.1,0.1-0.2,0.3-0.4,0.6l-1,2.7
	c-0.4,1.6-0.6,3.3-0.6,5.1c0,0.2,0,0.5,0.1,0.7L15.7,24z"/>
</svg>
