<?xml version="1.0" encoding="utf-8"?>
<!-- Generator: Adobe Illustrator 17.1.0, SVG Export Plug-In . SVG Version: 6.00 Build 0)  -->
<!DOCTYPE svg PUBLIC "-//W3C//DTD SVG 1.1//EN" "http://www.w3.org/Graphics/SVG/1.1/DTD/svg11.dtd">
<svg version="1.1" id="Layer_1" xmlns="http://www.w3.org/2000/svg" xmlns:xlink="http://www.w3.org/1999/xlink" x="0px" y="0px"
	 viewBox="0 0 24 24" enable-background="new 0 0 24 24" xml:space="preserve">
<path fill="#634040" d="M22.1,15.8h-2c0-0.2-0.1-0.4-0.1-0.5l3.6-1.8c0.4-0.2,0.5-0.6,0.3-1c-0.2-0.4-0.6-0.5-1-0.3l-3.4,1.7
	C18.2,11,15.3,9,12,9c-4,0-7.4,2.9-8.1,6.8h-2c-1,0-1.9,0.8-1.9,1.9c0,0.4,0.1,0.7,0.4,1L3,21.6v0.6c0,1,0.8,1.9,1.9,1.9h14.2
	c1,0,1.9-0.8,1.9-1.9v-0.6l2.6-2.9c0.2-0.3,0.4-0.6,0.4-1C24,16.6,23.2,15.8,22.1,15.8L22.1,15.8z M19.3,15.8h-0.4l0.4-0.2
	C19.3,15.6,19.3,15.7,19.3,15.8z M12,9.8c3,0,5.6,1.8,6.8,4.4l-0.7,0.3c-1.1-2.3-3.4-4-6.1-4c-3.2,0-5.9,2.2-6.6,5.2H4.7
	C5.4,12.3,8.4,9.8,12,9.8L12,9.8z M15.4,15.8c-0.6-1.3-1.9-2.2-3.4-2.2s-2.9,0.9-3.4,2.2H7.8c0.6-1.7,2.3-3,4.2-3
	c1.8,0,3.4,1.1,4.1,2.7L15.4,15.8z M12,15c-0.7,0-1.3,0.3-1.7,0.8H9.4c0.5-0.9,1.5-1.5,2.6-1.5s2.1,0.6,2.6,1.5h-0.9
	C13.3,15.3,12.7,15,12,15z M12,12c-2.4,0-4.4,1.6-5,3.8H6.2c0.7-2.6,3-4.5,5.8-4.5c2.4,0,4.5,1.5,5.5,3.6l-0.7,0.3
	C16,13.3,14.1,12,12,12L12,12z M19.5,21v1.1c0,0.2-0.2,0.4-0.4,0.4H4.9c-0.2,0-0.4-0.2-0.4-0.4V21l-3-3.4c0-0.2,0.2-0.4,0.4-0.4
	h20.2c0.2,0,0.4,0.2,0.4,0.4L19.5,21z M6,8.8C6,8.8,6,8.8,6,8.8c-0.4-1,0-1.9,0.3-2.7c0.3-0.8,0.6-1.5,0.3-2.2c0,0,0,0,0,0
	c0,0,0,0,0,0c0,0,0,0,0,0c0,0,0-0.1,0-0.1c0-0.2,0.2-0.4,0.4-0.4c0.2,0,0.3,0.1,0.3,0.2c0.4,1,0,1.9-0.3,2.7
	C6.7,7.1,6.4,7.9,6.7,8.5c0,0,0,0,0,0c0,0,0,0.1,0,0.1C6.7,8.8,6.5,9,6.3,9C6.2,9,6.1,8.9,6,8.8C6,8.8,6,8.8,6,8.8
	C6,8.8,6,8.8,6,8.8L6,8.8z M15.1,8.7C15.1,8.7,15.1,8.7,15.1,8.7c-0.4-1,0-1.9,0.3-2.7c0.3-0.8,0.6-1.5,0.3-2.2c0,0,0,0,0,0
	c0,0,0,0,0,0c0,0,0,0,0,0c0,0,0-0.1,0-0.1c0-0.2,0.2-0.4,0.4-0.4c0.2,0,0.3,0.1,0.3,0.2c0.4,1,0,1.9-0.3,2.7
	c-0.3,0.8-0.6,1.5-0.3,2.2c0,0,0,0,0,0c0,0,0,0.1,0,0.1c0,0.2-0.2,0.4-0.4,0.4C15.3,8.9,15.2,8.8,15.1,8.7L15.1,8.7
	C15.1,8.7,15.1,8.7,15.1,8.7L15.1,8.7z M11.3,5.4C11.3,5.4,11.3,5.4,11.3,5.4c-0.4-1,0-1.9,0.3-2.7c0.3-0.8,0.6-1.5,0.3-2.2
	c0,0,0,0,0,0c0,0,0,0,0,0c0,0,0,0,0,0c0,0,0-0.1,0-0.1c0-0.2,0.2-0.4,0.4-0.4c0.2,0,0.3,0.1,0.3,0.2c0.4,1,0,1.9-0.3,2.7
	C12,3.8,11.7,4.5,12,5.1c0,0,0,0,0,0c0,0,0,0.1,0,0.1c0,0.2-0.2,0.4-0.4,0.4C11.5,5.6,11.3,5.5,11.3,5.4C11.3,5.4,11.3,5.4,11.3,5.4
	C11.3,5.4,11.3,5.4,11.3,5.4L11.3,5.4z"/>
</svg>
