<?xml version="1.0" encoding="utf-8"?>
<!-- Generator: Adobe Illustrator 17.1.0, SVG Export Plug-In . SVG Version: 6.00 Build 0)  -->
<!DOCTYPE svg PUBLIC "-//W3C//DTD SVG 1.1//EN" "http://www.w3.org/Graphics/SVG/1.1/DTD/svg11.dtd">
<svg version="1.1" id="Layer_1" xmlns="http://www.w3.org/2000/svg" xmlns:xlink="http://www.w3.org/1999/xlink" x="0px" y="0px"
	 viewBox="0 0 24 24" enable-background="new 0 0 24 24" xml:space="preserve">
<polygon fill="#77D2F2" points="12,2.4 5.8,8.3 9.7,8.3 9.7,14.4 14.3,14.4 14.3,8.3 18.2,8.3 "/>
<path fill="#196025" d="M23.2,16.3l-3.8-2.6H17l4.1,3.1h-4.3c-0.1,0-0.2,0.1-0.3,0.2l-1,2.7H8.4l-1-2.7c-0.1-0.1-0.2-0.2-0.3-0.2
	H2.9L7,13.7H4.6l-3.8,2.6C0.2,16.6-0.1,17.4,0,18l0.7,3.7c0.2,0.6,0.8,1.1,1.5,1.1h19.6c0.7,0,1.4-0.5,1.5-1.1L24,18
	C24.1,17.4,23.8,16.6,23.2,16.3L23.2,16.3z"/>
</svg>
