<?xml version="1.0" encoding="utf-8"?>
<!-- Generator: Adobe Illustrator 17.1.0, SVG Export Plug-In . SVG Version: 6.00 Build 0)  -->
<!DOCTYPE svg PUBLIC "-//W3C//DTD SVG 1.1//EN" "http://www.w3.org/Graphics/SVG/1.1/DTD/svg11.dtd">
<svg version="1.1" id="Layer_1" xmlns="http://www.w3.org/2000/svg" xmlns:xlink="http://www.w3.org/1999/xlink" x="0px" y="0px"
	 viewBox="0 0 24 24" enable-background="new 0 0 24 24" xml:space="preserve">
<path fill="#DD62CC" d="M21.8,12c0,1,0.2,1.9,0.6,2.8s1,1.3,1.6,1.6c-0.3,0.1-0.5,0.2-0.8,0.2c-0.8,0-1.5-0.4-2.1-1.3
	c-0.6-0.9-0.9-1.9-0.9-3.2c0-0.9,0-1.5,0.1-1.9S20.6,9.4,21,9c0.4-0.5,0.6-1.2,0.8-2.2l1.5-1.5c0,0.8-0.1,1.6-0.3,2.2
	c-0.2,0.7-0.4,1.2-0.6,1.7C22.1,9.7,22,10,22,10.1C21.8,10.8,21.8,11.4,21.8,12L21.8,12z M23.8,1.3C23.9,1.4,24,1.6,24,1.8
	s-0.1,0.4-0.2,0.5L8.4,17.8C8.2,17.9,8.1,18,7.8,18c-0.2,0-0.4-0.1-0.6-0.2l-1.1-1.1C6.1,16.6,6,16.4,6,16.2c0-0.2,0.1-0.4,0.2-0.5
	L21.6,0.2C21.8,0.1,21.9,0,22.2,0c0.2,0,0.4,0.1,0.6,0.2L23.8,1.3L23.8,1.3z M6,18.7c0,0,0.1,0.1,0.2,0.2s0.2,0.1,0.2,0.2
	c0.1,0,0.1,0.1,0.2,0.2c0,0.1,0.1,0.1,0.1,0.2c0,0.1,0,0.1-0.1,0.2l-4.2,4.2C2.2,23.9,2.1,24,1.8,24s-0.4-0.1-0.6-0.2l-1.1-1.1
	C0.1,22.6,0,22.4,0,22.2s0.1-0.4,0.2-0.5l4.1-4.2c0,0,0.1-0.1,0.2-0.1c0.1,0,0.1,0,0.2,0.1c0.1,0,0.1,0.1,0.2,0.2s0.1,0.1,0.2,0.2
	C5.1,17.9,5.2,18,5.2,18L6,18.7L6,18.7z"/>
</svg>
