<?xml version="1.0" encoding="utf-8"?>
<!-- Generator: Adobe Illustrator 17.1.0, SVG Export Plug-In . SVG Version: 6.00 Build 0)  -->
<!DOCTYPE svg PUBLIC "-//W3C//DTD SVG 1.1//EN" "http://www.w3.org/Graphics/SVG/1.1/DTD/svg11.dtd">
<svg version="1.1" id="Layer_1" xmlns="http://www.w3.org/2000/svg" xmlns:xlink="http://www.w3.org/1999/xlink" x="0px" y="0px"
	 viewBox="0 0 24 24" enable-background="new 0 0 24 24" xml:space="preserve">
<path fill="#0086AF" d="M21,14.8C21,14.8,21,14.8,21,14.8c0-0.1,0-0.1,0-0.1C20.8,7.3,12,0,12,0S3.2,7.3,3,14.7c0,0,0,0.1,0,0.1
	c0,0,0,0,0,0c0,0.1,0,0.1,0,0.2c0,0.1,0,0.1,0,0.2c0,0,0,0,0,0c0.1,4.9,4.1,8.8,9,8.8s8.9-3.9,9-8.8c0,0,0,0,0,0c0-0.1,0-0.1,0-0.2
	C21,14.9,21,14.9,21,14.8z M18,15.1L18,15.1c0,1.6-0.7,3.1-1.8,4.2C15.1,20.4,13.6,21,12,21c-0.3,0-0.6,0-0.9-0.1
	c3.3-1.9,5.4-5.5,5.4-9.6c0-0.5,0-0.9-0.1-1.3c0.9,1.7,1.5,3.3,1.5,4.8v0c0,0,0,0,0,0.1l0,0c0,0,0,0.1,0,0.1C18,15,18,15.1,18,15.1
	L18,15.1z"/>
</svg>
